# xmcd
#
# Track frame offsets:
#	150
#	13229
#	27565
#	41546
#	55220
#	67607
#	79994
#	92612
#	105729
#	116523
#	128450
#	141817
#	154377
#	165996
#	179804
#	193804
#	207171
#	220211
#	232790
#	247213
#	260388
#	273025
#	287121
#	299796
#	310935
#	323361
#	337035
#
# Disc length: 4646 seconds
#
# Revision: 0
# Processed by: cddbd v1.4PL0 Copyright (c) Steve Scherf et al.
# Submitted via: EasyCDDAExtractor 4.6.9.1
#
DISCID=8f12241b
DTITLE=Slim Whitman - Rose Marie CD1
DYEAR=1996
DGENRE=Country
TTITLE0=I'll Do As Much For You Someday(1949)
TTITLE1=I'll Never Pass This Way Again(1949)
TTITLE2=Paint A Rose On The Garden Wall(1949)
TTITLE3=Tears Can Never Drown The Flame(1949)
TTITLE4=I'm Casting My Lasso Towards The Sky(1949)
TTITLE5=Wabash Waltz(1950)
TTITLE6=I'm Crying For You(1950)
TTITLE7=Birmingham Jail(1949)
TTITLE8=Let's Go To Church (w-Dolores Watson)(1950)
TTITLE9=There's A Rainbow In Every Teardrop(1950)
TTITLE10=Love Song Of The Waterfall(1951)
TTITLE11=My Love Is Growing Stale(1951)
TTITLE12=Bandera Waltz(1950)
TTITLE13=End Of The World(1952)
TTITLE14=In A Hundred Years Or More(1952)
TTITLE15=Why(1954)
TTITLE16=Cold Empty Arms(1952)
TTITLE17=Blue River(1962)
TTITLE18=Indian Love Call(1952)
TTITLE19=China Doll(1952)
TTITLE20=An Amateur In Love(1952)
TTITLE21=Song Of The Old Waterwheel(1953)
TTITLE22=By The Waters Of Minnetoka(1952)
TTITLE23=Keep It A Secret(1952)
TTITLE24=My Heart Is Broken In Three(1952)
TTITLE25=All That I'm Asking Is Sympathy(1953)
TTITLE26=How Can I Tell(1953)
EXTD=
EXTT0=
EXTT1=
EXTT2=
EXTT3=
EXTT4=
EXTT5=
EXTT6=
EXTT7=
EXTT8=
EXTT9=
EXTT10=
EXTT11=
EXTT12=
EXTT13=
EXTT14=
EXTT15=
EXTT16=
EXTT17=
EXTT18=
EXTT19=
EXTT20=
EXTT21=
EXTT22=
EXTT23=
EXTT24=
EXTT25=
EXTT26=
PLAYORDER=
